{
	"asset":{
		"generator":"Khronos glTF Blender I/O v3.6.27",
		"version":"2.0"
	},
	"scene":0,
	"scenes":[
		{
			"name":"Scene",
			"nodes":[
				1,
				3,
				5
			]
		}
	],
	"nodes":[
		{
			"mesh":0,
			"name":"Object_4",
			"scale":[
				0.009999999776482582,
				0.009999999776482582,
				0.009999999776482582
			]
		},
		{
			"children":[
				0
			],
			"name":"AM149_set15_051_0",
			"rotation":[
				-0.70710688829422,
				0,
				0,
				0.7071066498756409
			]
		},
		{
			"mesh":1,
			"name":"Object_6",
			"scale":[
				0.009999999776482582,
				0.009999999776482582,
				0.009999999776482582
			]
		},
		{
			"children":[
				2
			],
			"name":"AM149_set15_052_1",
			"rotation":[
				-0.70710688829422,
				0,
				0,
				0.7071066498756409
			]
		},
		{
			"mesh":2,
			"name":"Object_8",
			"scale":[
				0.009999999776482582,
				0.009999999776482582,
				0.009999999776482582
			]
		},
		{
			"children":[
				4
			],
			"name":"AM149_set15_053_2",
			"rotation":[
				-0.70710688829422,
				0,
				0,
				0.7071066498756409
			]
		}
	],
	"materials":[
		{
			"name":"Apple_LP",
			"normalTexture":{
				"index":0
			},
			"occlusionTexture":{
				"index":1
			},
			"pbrMetallicRoughness":{
				"baseColorTexture":{
					"index":2
				},
				"metallicRoughnessTexture":{
					"index":1
				}
			}
		}
	],
	"meshes":[
		{
			"name":"Object_0",
			"primitives":[
				{
					"attributes":{
						"POSITION":0,
						"NORMAL":1,
						"TEXCOORD_0":2,
						"TEXCOORD_1":3,
						"TEXCOORD_2":4,
						"TEXCOORD_3":5,
						"TEXCOORD_4":6
					},
					"indices":7,
					"material":0
				}
			]
		},
		{
			"name":"Object_1",
			"primitives":[
				{
					"attributes":{
						"POSITION":8,
						"NORMAL":9,
						"TEXCOORD_0":10,
						"TEXCOORD_1":11,
						"TEXCOORD_2":12,
						"TEXCOORD_3":13,
						"TEXCOORD_4":14
					},
					"indices":15,
					"material":0
				}
			]
		},
		{
			"name":"Object_2",
			"primitives":[
				{
					"attributes":{
						"POSITION":16,
						"NORMAL":17,
						"TEXCOORD_0":18,
						"TEXCOORD_1":19,
						"TEXCOORD_2":20,
						"TEXCOORD_3":21,
						"TEXCOORD_4":22
					},
					"indices":23,
					"material":0
				}
			]
		}
	],
	"textures":[
		{
			"sampler":0,
			"source":0
		},
		{
			"sampler":0,
			"source":1
		},
		{
			"sampler":0,
			"source":2
		}
	],
	"images":[
		{
			"mimeType":"image/png",
			"name":"Apple_LP_normal",
			"uri":"Apple_LP_normal.png"
		},
		{
			"mimeType":"image/png",
			"name":"Apple_LP_metallicRoughness",
			"uri":"Apple_LP_metallicRoughness.png"
		},
		{
			"mimeType":"image/jpeg",
			"name":"Apple_LP_baseColor",
			"uri":"Apple_LP_baseColor.jpg"
		}
	],
	"accessors":[
		{
			"bufferView":0,
			"componentType":5126,
			"count":2321,
			"max":[
				27.715736389160156,
				-9.209704399108887,
				1.767286777496338
			],
			"min":[
				-16.881296157836914,
				-24.443233489990234,
				0.017470555379986763
			],
			"type":"VEC3"
		},
		{
			"bufferView":1,
			"componentType":5126,
			"count":2321,
			"type":"VEC3"
		},
		{
			"bufferView":2,
			"componentType":5126,
			"count":2321,
			"type":"VEC2"
		},
		{
			"bufferView":3,
			"componentType":5126,
			"count":2321,
			"type":"VEC2"
		},
		{
			"bufferView":4,
			"componentType":5126,
			"count":2321,
			"type":"VEC2"
		},
		{
			"bufferView":5,
			"componentType":5126,
			"count":2321,
			"type":"VEC2"
		},
		{
			"bufferView":6,
			"componentType":5126,
			"count":2321,
			"type":"VEC2"
		},
		{
			"bufferView":7,
			"componentType":5123,
			"count":3621,
			"type":"SCALAR"
		},
		{
			"bufferView":8,
			"componentType":5126,
			"count":392,
			"max":[
				41.25015640258789,
				-9.645646095275879,
				2.989348888397217
			],
			"min":[
				35.19108581542969,
				-20.21853256225586,
				0.10977489501237869
			],
			"type":"VEC3"
		},
		{
			"bufferView":9,
			"componentType":5126,
			"count":392,
			"type":"VEC3"
		},
		{
			"bufferView":10,
			"componentType":5126,
			"count":392,
			"type":"VEC2"
		},
		{
			"bufferView":11,
			"componentType":5126,
			"count":392,
			"type":"VEC2"
		},
		{
			"bufferView":12,
			"componentType":5126,
			"count":392,
			"type":"VEC2"
		},
		{
			"bufferView":13,
			"componentType":5126,
			"count":392,
			"type":"VEC2"
		},
		{
			"bufferView":14,
			"componentType":5126,
			"count":392,
			"type":"VEC2"
		},
		{
			"bufferView":15,
			"componentType":5123,
			"count":1452,
			"type":"SCALAR"
		},
		{
			"bufferView":16,
			"componentType":5126,
			"count":865,
			"max":[
				38.397335052490234,
				15.96898365020752,
				51.71382522583008
			],
			"min":[
				-25.89359474182129,
				-4.444372177124023,
				-0.06497456878423691
			],
			"type":"VEC3"
		},
		{
			"bufferView":17,
			"componentType":5126,
			"count":865,
			"type":"VEC3"
		},
		{
			"bufferView":18,
			"componentType":5126,
			"count":865,
			"type":"VEC2"
		},
		{
			"bufferView":19,
			"componentType":5126,
			"count":865,
			"type":"VEC2"
		},
		{
			"bufferView":20,
			"componentType":5126,
			"count":865,
			"type":"VEC2"
		},
		{
			"bufferView":21,
			"componentType":5126,
			"count":865,
			"type":"VEC2"
		},
		{
			"bufferView":22,
			"componentType":5126,
			"count":865,
			"type":"VEC2"
		},
		{
			"bufferView":23,
			"componentType":5123,
			"count":3168,
			"type":"SCALAR"
		}
	],
	"bufferViews":[
		{
			"buffer":0,
			"byteLength":27852,
			"byteOffset":0,
			"target":34962
		},
		{
			"buffer":0,
			"byteLength":27852,
			"byteOffset":27852,
			"target":34962
		},
		{
			"buffer":0,
			"byteLength":18568,
			"byteOffset":55704,
			"target":34962
		},
		{
			"buffer":0,
			"byteLength":18568,
			"byteOffset":74272,
			"target":34962
		},
		{
			"buffer":0,
			"byteLength":18568,
			"byteOffset":92840,
			"target":34962
		},
		{
			"buffer":0,
			"byteLength":18568,
			"byteOffset":111408,
			"target":34962
		},
		{
			"buffer":0,
			"byteLength":18568,
			"byteOffset":129976,
			"target":34962
		},
		{
			"buffer":0,
			"byteLength":7242,
			"byteOffset":148544,
			"target":34963
		},
		{
			"buffer":0,
			"byteLength":4704,
			"byteOffset":155788,
			"target":34962
		},
		{
			"buffer":0,
			"byteLength":4704,
			"byteOffset":160492,
			"target":34962
		},
		{
			"buffer":0,
			"byteLength":3136,
			"byteOffset":165196,
			"target":34962
		},
		{
			"buffer":0,
			"byteLength":3136,
			"byteOffset":168332,
			"target":34962
		},
		{
			"buffer":0,
			"byteLength":3136,
			"byteOffset":171468,
			"target":34962
		},
		{
			"buffer":0,
			"byteLength":3136,
			"byteOffset":174604,
			"target":34962
		},
		{
			"buffer":0,
			"byteLength":3136,
			"byteOffset":177740,
			"target":34962
		},
		{
			"buffer":0,
			"byteLength":2904,
			"byteOffset":180876,
			"target":34963
		},
		{
			"buffer":0,
			"byteLength":10380,
			"byteOffset":183780,
			"target":34962
		},
		{
			"buffer":0,
			"byteLength":10380,
			"byteOffset":194160,
			"target":34962
		},
		{
			"buffer":0,
			"byteLength":6920,
			"byteOffset":204540,
			"target":34962
		},
		{
			"buffer":0,
			"byteLength":6920,
			"byteOffset":211460,
			"target":34962
		},
		{
			"buffer":0,
			"byteLength":6920,
			"byteOffset":218380,
			"target":34962
		},
		{
			"buffer":0,
			"byteLength":6920,
			"byteOffset":225300,
			"target":34962
		},
		{
			"buffer":0,
			"byteLength":6920,
			"byteOffset":232220,
			"target":34962
		},
		{
			"buffer":0,
			"byteLength":6336,
			"byteOffset":239140,
			"target":34963
		}
	],
	"samplers":[
		{
			"magFilter":9729,
			"minFilter":9987
		}
	],
	"buffers":[
		{
			"byteLength":245476,
			"uri":"betterModel.bin"
		}
	]
}
