<svg width="151" height="38" viewBox="0 0 151 38" fill="none" xmlns="http://www.w3.org/2000/svg">
<path d="M54.5182 24.8043C53.0604 23.5012 52.1265 21.4598 52.1265 19.0691C52.1265 16.8132 52.8847 14.9465 54.421 13.4499C55.9573 11.9523 57.7655 11.1941 59.8843 11.1941C61.8097 11.1941 63.5007 11.7965 64.5894 12.7304C65.6781 13.6445 66.4164 14.6746 66.748 15.7632L64.5894 16.7547C63.8312 14.7906 62.2363 13.43 59.8456 13.43C58.4651 13.43 57.2405 13.955 56.2093 14.9851C55.1792 16.0152 54.6542 17.3382 54.6542 18.9906C54.6542 20.6242 55.1593 21.966 56.1905 23.0149C57.2206 24.045 58.4452 24.57 59.8456 24.57C60.8956 24.57 61.8671 24.2594 62.7425 23.6559C63.6367 23.0337 64.2788 22.2169 64.648 21.2254L66.8253 22.2169C66.4562 23.2868 65.7168 24.3169 64.5695 25.2497C63.4222 26.1825 61.7113 26.8048 59.7859 26.8048C57.8429 26.807 55.9772 26.0676 54.5182 24.8043Z" fill="white"/>
<path d="M72.2267 13.4687C73.763 11.9523 75.6099 11.1941 77.7684 11.1941C79.9458 11.1941 81.7927 11.9324 83.2903 13.43C84.8067 14.9277 85.5649 16.7746 85.5649 18.9906C85.5649 21.2067 84.8067 23.0734 83.2704 24.5711C81.7341 26.0687 79.8872 26.807 77.7099 26.807C75.5325 26.807 73.6856 26.0687 72.188 24.6098C70.6903 23.132 69.9321 21.2851 69.9321 19.0492C69.9321 16.8519 70.6903 14.9851 72.2267 13.4687ZM81.502 22.9574C82.5321 21.8687 83.0571 20.5468 83.0571 18.9906C83.0571 17.4344 82.5321 16.1125 81.502 15.0437C80.4719 13.955 79.2274 13.4101 77.7496 13.4101C76.252 13.4101 75.0086 13.955 73.9774 15.0437C72.9473 16.1136 72.4411 17.4355 72.4411 18.9906C72.4411 20.5457 72.9462 21.8687 73.9774 22.9574C75.0075 24.0461 76.252 24.591 77.7496 24.591C79.2263 24.5899 80.4708 24.0461 81.502 22.9574Z" fill="white"/>
<path d="M91.0966 14.9078V26.6325H88.7435V11.4075H91.5631L99.0689 22.6259V11.4075H101.441V26.6313H98.9517L91.0966 14.9078Z" fill="white"/>
<path d="M104.635 11.4075H107.027V26.6313H104.635V11.4075Z" fill="white"/>
<path d="M115.863 18.7961L110.536 11.4075H113.414L117.302 16.9493L121.211 11.4075H124.03L118.741 18.7763L124.341 26.6313H121.502L117.264 20.643L113.005 26.6313H110.205L115.863 18.7961Z" fill="white"/>
<path d="M136.11 11.4075H138.929L145.093 26.6313H142.604L141.224 23.0536H133.758L132.357 26.6313H129.907L136.11 11.4075ZM134.613 20.9348H140.388L137.491 13.702L134.613 20.9348Z" fill="white"/>
<path d="M148.272 11.4075H150.664V26.6313H148.272V11.4075Z" fill="white"/>
<path d="M125.93 24.2407H128.322V26.6325H125.93V24.2407Z" fill="white"/>
<path d="M10.322 38L0 10.4668L20.9215 20.4507L23.0082 17.4245L3.67389 0L30.7119 9.79814L25.6686 17.1117L40.2658 30.2665L10.322 38ZM21.6045 23.0071L13.2134 35.175L35.2037 29.4961L21.6045 23.0071ZM3.63631 14.4325L11.1852 34.5704L19.7643 22.1284L3.63631 14.4325ZM22.7607 21.3293L32.4936 25.9748L24.5158 18.785L22.7607 21.3293ZM12.6751 5.40363L24.161 15.7544L27.5752 10.8028L12.6751 5.40363Z" fill="url(#paint0_linear_1_5421)"/>
<defs>
<linearGradient id="paint0_linear_1_5421" x1="-2.34005" y1="12.5623" x2="33.8277" y2="30.502" gradientUnits="userSpaceOnUse">
<stop offset="0.0946" stop-color="#0CA5EF"/>
<stop offset="0.618" stop-color="#1A57F4"/>
<stop offset="1" stop-color="#DE2CB9"/>
</linearGradient>
</defs>
</svg>
